<svg width="210" height="50" viewBox="0 0 210 50" fill="none" xmlns="http://www.w3.org/2000/svg">
<path d="M32.9862 8.6V37H38.7462V19.04L45.3462 31.08H49.5862L56.1862 19.04V37H61.9462V8.6H56.5462L47.5462 25L38.5862 8.6H32.9862ZM67.9269 8.6V37H78.4469C83.6069 37 88.8069 34.68 88.8069 28.92C88.8069 25.72 87.2469 23.12 84.2469 21.96C86.5269 20.72 87.6069 18.52 87.6069 15.96C87.6069 10.52 82.8869 8.6 78.2469 8.6H67.9269ZM73.6869 32.08V24.64H78.1669C80.6469 24.64 82.8469 25.56 82.8469 28.36C82.8469 31.16 80.6469 32.08 78.1669 32.08H73.6869ZM73.6869 20.04V13.52H77.6069C79.8069 13.52 81.6869 14.32 81.6869 16.8C81.6869 19.24 79.7669 20.04 77.6069 20.04H73.6869ZM91.3997 13.88H99.3997V37H105.36V13.88H113.36V8.6H91.3997V13.88ZM113.367 26.44C113.367 32.8 118.047 37.6 124.327 37.6C130.807 37.6 135.447 32.72 135.447 26.4C135.447 20 130.767 15.28 124.487 15.28C118.087 15.28 113.367 20.16 113.367 26.44ZM124.407 20.32C127.807 20.32 129.727 23.32 129.727 26.44C129.727 29.6 127.727 32.56 124.407 32.56C121.047 32.56 119.087 29.52 119.087 26.44C119.087 23.28 121.087 20.32 124.407 20.32ZM139.928 7.16V37H145.408V26.48L153.688 37H160.768L151.008 25.24L159.808 15.88H153.248L145.408 24.48V7.16H139.928ZM162.037 26.4C162.037 32.8 166.477 37.6 172.837 37.6C176.797 37.6 180.917 35.64 182.437 31.84L177.437 30.24C176.397 31.92 174.877 32.88 172.877 32.88C169.837 32.88 168.157 30.64 167.717 27.84H182.877V26.44C182.877 20.04 178.997 15.28 172.557 15.28C166.237 15.28 162.037 20.4 162.037 26.4ZM172.557 19.6C175.237 19.6 176.757 21.6 177.117 24.08H167.797C168.277 21.6 169.877 19.6 172.557 19.6ZM187.153 15.88V37H192.753V24.88C192.753 22.28 194.473 20.32 197.073 20.32C199.833 20.32 200.833 22.6 200.833 25.04V37H206.433V24.32C206.433 19.4 203.913 15.28 198.713 15.28C196.153 15.28 193.793 16.36 192.473 18.6L192.313 15.88H187.153Z" fill="#F7F7F7"/>
<path d="M36.9309 15.0017C40.2026 22.9887 37.2031 33.9749 30.2081 39.5337C23.2132 45.0925 14.8969 43.0989 11.6252 35.1119C8.35355 27.1249 11.3531 16.1387 18.348 10.5799C25.3429 5.02115 33.6593 7.01472 36.9309 15.0017Z" fill="#434343" stroke="#434343" stroke-width="0.2"/>
<path d="M39.3238 16.4308C42.4125 23.9713 39.5809 34.3441 32.9761 39.5929C26.3712 44.8417 18.5194 42.9588 15.4307 35.4184C12.342 27.878 15.1736 17.5051 21.7784 12.2563C28.3833 7.00755 36.2351 8.8904 39.3238 16.4308Z" fill="white" stroke="#434343" stroke-width="0.2"/>
<path d="M38.2807 17.5849C41.138 24.5602 38.6734 34.014 32.7761 38.7005C26.8787 43.3871 19.7817 41.5318 16.9244 34.5565C14.0672 27.5811 16.5318 18.1274 22.4291 13.4408C28.3264 8.75427 35.4235 10.6095 38.2807 17.5849Z" stroke="#434343" stroke-width="0.2"/>
<path d="M36.476 19.3414C38.85 25.1369 36.8345 32.9642 31.9766 36.8248C27.1186 40.6854 21.2553 39.1191 18.8814 33.3236C16.5074 27.5281 18.5228 19.7008 23.3808 15.8402C28.2388 11.9796 34.1021 13.5458 36.476 19.3414Z" stroke="#434343" stroke-width="0.2"/>
<path d="M28.652 21.7027L28.652 21.4749L29.3827 21.1615L29.3827 21.3893L28.652 21.7027Z" fill="#434343" stroke="#434343" stroke-width="0.2"/>
<path d="M27.9664 22.8524L27.9664 22.6246L30.069 21.7227L30.069 21.9505L27.9664 22.8524Z" fill="#434343" stroke="#434343" stroke-width="0.2"/>
<path d="M24.7657 27.2197L24.7657 26.992L25.0392 26.8747L25.0392 27.1024L24.7657 27.2197Z" fill="#434343" stroke="#434343" stroke-width="0.2"/>
<path d="M25.6791 26.8274L25.6791 26.5996L25.9525 26.4823L25.9525 26.7101L25.6791 26.8274Z" fill="#434343" stroke="#434343" stroke-width="0.2"/>
<path d="M26.5943 26.4351L26.5943 26.2074L26.8678 26.0901L26.8678 26.3178L26.5943 26.4351Z" fill="#434343" stroke="#434343" stroke-width="0.2"/>
<path d="M27.5099 26.0427L27.5099 25.8149L27.7833 25.6976L27.7833 25.9254L27.5099 26.0427Z" fill="#434343" stroke="#434343" stroke-width="0.2"/>
<path d="M28.4232 25.6502L28.4232 25.4225L28.6967 25.3052L28.6967 25.5329L28.4232 25.6502Z" fill="#434343" stroke="#434343" stroke-width="0.2"/>
<path d="M29.3385 25.2581L29.3385 25.0303L29.6119 24.913L29.6119 25.1408L29.3385 25.2581Z" fill="#434343" stroke="#434343" stroke-width="0.2"/>
<path d="M30.2535 24.8657L30.2535 24.638L30.527 24.5207L30.527 24.7484L30.2535 24.8657Z" fill="#434343" stroke="#434343" stroke-width="0.2"/>
<path d="M31.1669 24.4735L31.1669 24.2457L31.4403 24.1284L31.4403 24.3562L31.1669 24.4735Z" fill="#434343" stroke="#434343" stroke-width="0.2"/>
<path d="M32.0821 24.0813L32.0821 23.8535L32.3556 23.7362L32.3556 23.964L32.0821 24.0813Z" fill="#434343" stroke="#434343" stroke-width="0.2"/>
<path d="M32.9955 23.689L32.9955 23.4612L33.2689 23.3439L33.2689 23.5717L32.9955 23.689Z" fill="#434343" stroke="#434343" stroke-width="0.2"/>
<path d="M26.8233 29.3312L26.8233 29.1035L27.0968 28.9862L27.0968 29.2139L26.8233 29.3312Z" fill="#434343" stroke="#434343" stroke-width="0.2"/>
<path d="M29.9324 27.5699L29.8405 27.6093L29.8405 27.7093L29.8405 28.5649L29.8405 28.6649L29.9324 28.6254L31.0755 28.1351L31.1674 28.0957L31.1674 27.9957L31.1674 27.1401L31.1674 27.0401L31.0755 27.0796L29.9324 27.5699ZM31.4409 27.8784L31.4409 27.9784L31.5328 27.9389L32.676 27.4486L32.7679 27.4091L32.7679 27.3091L32.7679 26.4536L32.7679 26.3536L32.676 26.393L31.5328 26.8834L31.4409 26.9228L31.4409 27.0228L31.4409 27.8784ZM32.676 26.1653L32.7679 26.1259L32.7679 26.0259L32.7679 25.1704L32.7679 25.0704L32.676 25.1098L31.5328 25.6001L31.4409 25.6396L31.4409 25.7396L31.4409 26.5951L31.4409 26.6951L31.5328 26.6557L32.676 26.1653ZM31.1674 25.8569L31.1674 25.7569L31.0755 25.7963L29.9324 26.2866L29.8405 26.3261L29.8405 26.4261L29.8405 27.2816L29.8405 27.3816L29.9324 27.3422L31.0755 26.8518L31.1674 26.8124L31.1674 26.7124L31.1674 25.8569ZM29.567 28.896L29.567 26.3295C29.567 26.2932 29.5791 26.2627 29.5979 26.2371C29.6179 26.2098 29.6523 26.179 29.7037 26.157L32.9046 24.7839C32.9561 24.7619 32.9905 24.7631 33.0105 24.7732C33.0292 24.7827 33.0413 24.8027 33.0413 24.8392L33.0413 27.4057C33.0413 27.4422 33.0292 27.4727 33.0105 27.4982C32.9905 27.5255 32.9561 27.5562 32.9046 27.5783L29.7037 28.9513C29.6522 28.9734 29.6179 28.9721 29.5979 28.962C29.5792 28.9525 29.567 28.9325 29.567 28.896Z" fill="#434343" stroke="#434343" stroke-width="0.2"/>
<path d="M34.8703 28.1183L34.8703 28.2183L34.9622 28.1789L35.7849 27.826L35.7849 28.0537L34.7336 28.5047L23.3019 33.4083L22.2506 33.8593L22.2506 33.6315L23.0732 33.2786L23.1651 33.2392L23.1651 33.1392L23.1651 32.4976C23.1651 32.4611 23.1773 32.4306 23.196 32.4051C23.216 32.3778 23.2504 32.3471 23.3019 32.325L23.7591 32.1289L23.851 32.0895L23.851 31.9895L23.851 26.8564L23.851 26.7564L23.7591 26.7958L23.0732 27.09C23.0217 27.1121 22.9874 27.1109 22.9674 27.1008C22.9487 27.0913 22.9365 27.0712 22.9365 27.0348L22.9365 26.2434C22.9365 26.2089 22.9463 26.1769 22.9817 26.1397L23.1189 25.9953L23.1651 25.9467L23.1651 25.938L28.93 19.4578L28.9303 19.4575C28.9641 19.4193 28.9928 19.3985 29.0177 19.3878C29.0427 19.3771 29.0714 19.3733 29.1051 19.3825L29.1057 19.3826L31.0262 19.8849L31.1673 19.9218L31.1673 19.7399L31.1673 18.7988C31.1673 18.7624 31.1795 18.7319 31.1982 18.7064C31.2182 18.6791 31.2526 18.6484 31.3041 18.6263L33.1331 17.8417C33.1846 17.8196 33.219 17.8209 33.239 17.831C33.2577 17.8405 33.2699 17.8605 33.2699 17.897L33.2699 20.4421L33.2699 20.4971L33.3126 20.5083L35.0502 20.9606L35.0502 20.9607L35.0537 20.9614C35.0891 20.9683 35.0989 20.9919 35.0989 21.0264L35.0989 21.8177C35.0989 21.8542 35.0868 21.8846 35.0681 21.9102C35.0481 21.9374 35.0137 21.9682 34.9622 21.9902L34.2763 22.2845L34.1844 22.3239L34.1844 22.4239L34.1844 27.557L34.1844 27.657L34.2763 27.6176L34.7336 27.4214C34.7851 27.3993 34.8195 27.4005 34.8394 27.4107C34.8582 27.4201 34.8703 27.4402 34.8703 27.4766L34.8703 28.1183ZM32.9964 18.2281L32.9964 18.1281L32.9045 18.1676L31.5327 18.756L31.4408 18.7954L31.4408 18.8954L31.4408 19.1093L31.4408 19.2093L31.5327 19.1699L32.9045 18.5814L32.9964 18.542L32.9964 18.442L32.9964 18.2281ZM31.5327 19.3976L31.4408 19.4371L31.4408 19.5371L31.4408 19.9434L31.4408 19.9979L31.4829 20.0094L32.8547 20.3834L32.9964 20.4221L32.9964 20.2386L32.9964 18.8698L32.9964 18.7698L32.9045 18.8092L31.5327 19.3976ZM23.3019 26.1364L23.21 26.1758L23.21 26.2758L23.21 26.7038L23.21 26.8038L23.3019 26.7644L23.9878 26.4702L34.0477 22.155L34.7336 21.8608L34.8255 21.8214L34.8255 21.7214L34.8255 21.2508L34.8255 21.1961L34.7831 21.1848L29.0672 19.6584L29.0177 19.6452L28.9682 19.7009L23.8011 25.5103L23.5361 25.8082L23.8506 25.6733L32.3553 22.0252L32.3553 22.2529L23.3019 26.1364ZM24.2164 26.5997L24.1245 26.6391L24.1245 26.7391L24.1245 31.8722L24.1245 31.9722L24.2164 31.9327L25.1309 31.5405L25.2228 31.501L25.2228 31.401L25.2228 28.4067L25.2228 28.3067L25.1309 28.3462L24.7656 28.5029L24.7656 28.2751L25.3596 28.0203L27.8746 26.9415L28.4686 26.6867L28.4686 26.9145L28.1032 27.0712L28.0113 27.1106L28.0113 27.2106L28.0113 30.2049L28.0113 30.3049L28.1032 30.2655L33.819 27.8137L33.9109 27.7743L33.9109 27.6743L33.9109 22.5412L33.9109 22.4412L33.819 22.4806L24.2164 26.5997ZM25.5882 28.15L25.4963 28.1894L25.4963 28.2894L25.4963 31.2837L25.4963 31.3837L25.5882 31.3443L27.6459 30.4617L27.7378 30.4222L27.7378 30.3222L27.7378 27.3279L27.7378 27.2279L27.6459 27.2674L25.5882 28.15ZM23.4386 33.0219L23.4386 33.1219L23.5305 33.0825L34.5049 28.375L34.5969 28.3356L34.5969 28.2356L34.5969 27.8078L34.5969 27.7078L34.5049 27.7472L34.0477 27.9434L27.8746 30.5913L25.3596 31.6701L23.9878 32.2586L23.5305 32.4547L23.4386 32.4941L23.4386 32.5941L23.4386 33.0219Z" fill="#434343" stroke="#434343" stroke-width="0.2"/>
</svg>
