<svg width="215" height="40" viewBox="0 0 215 40" fill="none" xmlns="http://www.w3.org/2000/svg">
<path d="M187.985 21.8307C186.812 21 185.503 20.3977 184.264 19.6693C183.441 19.2417 182.655 18.7371 181.916 18.1614C180.736 17.126 180.972 15.0866 182.219 14.1968C183.987 12.933 186.927 13.6496 187.23 16.2205C187.232 16.2473 187.244 16.2723 187.262 16.2906C187.281 16.3088 187.305 16.319 187.33 16.3189H190.001C190.016 16.319 190.031 16.3157 190.044 16.3092C190.058 16.3027 190.07 16.2933 190.081 16.2814C190.091 16.2695 190.098 16.2555 190.103 16.2402C190.108 16.225 190.109 16.2088 190.108 16.1929C189.964 14.4173 189.331 12.9409 188.155 11.996C187.067 11.1038 185.734 10.6169 184.36 10.6102C177.285 10.6102 176.641 18.5827 180.447 21.0985C180.891 21.3898 184.623 23.3859 185.943 24.2481C187.264 25.1103 187.678 26.7087 187.105 27.9725C186.583 29.13 185.229 29.9056 183.876 29.8308C182.396 29.7481 181.25 28.8899 180.847 27.5552C180.781 27.2596 180.747 26.9573 180.743 26.6536C180.741 26.6247 180.729 26.5977 180.709 26.5779C180.689 26.5582 180.663 26.5472 180.636 26.5473H177.729C177.7 26.5483 177.673 26.5612 177.653 26.5833C177.633 26.6053 177.622 26.6348 177.622 26.6654C177.622 28.9017 178.147 30.1379 179.56 31.2678C180.798 32.268 182.314 32.8 183.868 32.7796C187.822 32.7796 189.886 30.3938 190.293 27.9213C190.7 25.4489 190.03 23.2717 187.985 21.8307Z" fill="#F7F7F7"/>
<path d="M62.0572 10.9921H59.3758C59.3532 10.9913 59.3311 10.9986 59.3129 11.0129C59.2948 11.0272 59.2817 11.0477 59.2759 11.0709L56.8867 19.4213C56.8806 19.4446 56.8676 19.4652 56.8496 19.4798C56.8315 19.4944 56.8095 19.5024 56.7868 19.5024C56.7641 19.5024 56.742 19.4944 56.724 19.4798C56.706 19.4652 56.6929 19.4446 56.6869 19.4213L54.3014 11.0709C54.2943 11.0477 54.2804 11.0275 54.2618 11.0134C54.2431 10.9992 54.2207 10.9918 54.1978 10.9921H49.7855C49.7577 10.9921 49.7309 11.0036 49.7109 11.0242C49.6909 11.0447 49.6792 11.0728 49.6782 11.1024V32.4372C49.6782 32.4675 49.6895 32.4965 49.7096 32.5179C49.7298 32.5393 49.757 32.5514 49.7855 32.5514H52.6925C52.7064 32.5514 52.7202 32.5484 52.733 32.5426C52.7458 32.5368 52.7574 32.5284 52.7671 32.5177C52.7768 32.507 52.7843 32.4944 52.7893 32.4806C52.7943 32.4668 52.7966 32.452 52.7961 32.4372V16.2284C52.798 16.2026 52.8082 16.1782 52.8249 16.1594C52.8415 16.1405 52.8637 16.1282 52.8878 16.1246C52.9119 16.1209 52.9364 16.1261 52.9574 16.1392C52.9784 16.1524 52.9945 16.1727 53.0032 16.1969L55.4072 24.6025L55.5737 25.1891C55.5808 25.2123 55.5947 25.2324 55.6133 25.2466C55.6319 25.2608 55.6543 25.2682 55.6772 25.2678H57.8963C57.9192 25.2682 57.9417 25.2608 57.9603 25.2466C57.9789 25.2324 57.9928 25.2123 57.9999 25.1891L58.1663 24.6025L60.5704 16.1969C60.5791 16.1727 60.5952 16.1524 60.6162 16.1392C60.6371 16.1261 60.6617 16.1209 60.6858 16.1246C60.7099 16.1282 60.7321 16.1405 60.7487 16.1594C60.7654 16.1782 60.7755 16.2026 60.7775 16.2284V32.4372C60.777 32.452 60.7793 32.4668 60.7843 32.4806C60.7893 32.4944 60.7968 32.507 60.8065 32.5177C60.8162 32.5284 60.8277 32.5368 60.8406 32.5426C60.8534 32.5484 60.8671 32.5514 60.8811 32.5514H63.7881C63.8166 32.5514 63.8438 32.5393 63.8639 32.5179C63.8841 32.4965 63.8954 32.4675 63.8954 32.4372V11.1024C63.8944 11.0728 63.8827 11.0447 63.8627 11.0242C63.8427 11.0036 63.8159 10.9921 63.7881 10.9921H62.0572Z" fill="#F7F7F7"/>
<path d="M143.569 10.9921C143.547 10.9925 143.525 11.0004 143.507 11.0145C143.489 11.0286 143.476 11.0483 143.469 11.0708L141.083 19.4213C141.076 19.444 141.063 19.4637 141.044 19.4777C141.026 19.4917 141.004 19.4992 140.982 19.4992C140.959 19.4992 140.937 19.4917 140.919 19.4777C140.901 19.4637 140.887 19.444 140.88 19.4213L138.494 11.0708C138.488 11.048 138.475 11.0279 138.457 11.0137C138.439 10.9995 138.417 10.9919 138.395 10.9921H133.982C133.954 10.992 133.928 11.0035 133.908 11.0241C133.888 11.0447 133.876 11.0727 133.875 11.1023V32.4371C133.875 32.4674 133.886 32.4964 133.906 32.5179C133.927 32.5393 133.954 32.5513 133.982 32.5513H136.889C136.917 32.5503 136.943 32.5378 136.963 32.5165C136.982 32.4952 136.993 32.4667 136.993 32.4371V16.2283C136.995 16.2025 137.005 16.1782 137.022 16.1593C137.038 16.1404 137.061 16.1282 137.085 16.1245C137.109 16.1209 137.133 16.126 137.154 16.1392C137.175 16.1523 137.191 16.1726 137.2 16.1968L139.604 24.6024L139.77 25.189C139.777 25.2116 139.791 25.2313 139.809 25.2454C139.826 25.2595 139.848 25.2673 139.87 25.2678H142.089C142.112 25.2686 142.134 25.2613 142.152 25.247C142.17 25.2327 142.183 25.2122 142.189 25.189L142.359 24.6024L144.76 16.1968C144.768 16.1726 144.785 16.1523 144.806 16.1392C144.827 16.126 144.851 16.1209 144.875 16.1245C144.899 16.1282 144.921 16.1404 144.938 16.1593C144.955 16.1782 144.965 16.2025 144.967 16.2283V32.4371C144.967 32.4674 144.978 32.4964 144.998 32.5179C145.018 32.5393 145.046 32.5513 145.074 32.5513H147.981C148.009 32.5503 148.035 32.5378 148.055 32.5165C148.074 32.4952 148.085 32.4667 148.085 32.4371V11.1023C148.084 11.0734 148.073 11.0459 148.053 11.0254C148.034 11.005 148.008 10.993 147.981 10.9921H143.569Z" fill="#F7F7F7"/>
<path d="M106.159 10.9921H92.474C92.4461 10.992 92.4194 11.0035 92.3994 11.0241C92.3794 11.0447 92.3677 11.0727 92.3667 11.1023V13.7716C92.3677 13.8012 92.3794 13.8293 92.3994 13.8498C92.4194 13.8704 92.4461 13.8819 92.474 13.8819H97.7739V32.4371C97.7739 32.4521 97.7767 32.467 97.7821 32.4808C97.7875 32.4947 97.7954 32.5073 97.8054 32.5179C97.8153 32.5285 97.8272 32.5369 97.8402 32.5426C97.8532 32.5483 97.8671 32.5513 97.8812 32.5513H100.788C100.816 32.5503 100.842 32.5378 100.862 32.5165C100.881 32.4952 100.892 32.4667 100.892 32.4371V13.8819H106.159C106.186 13.8819 106.213 13.8704 106.233 13.8498C106.253 13.8293 106.265 13.8012 106.266 13.7716V11.1023C106.265 11.0727 106.253 11.0447 106.233 11.0241C106.213 11.0035 106.186 10.992 106.159 10.9921Z" fill="#F7F7F7"/>
<path d="M123.279 32.5513H125.92C125.936 32.5514 125.952 32.5475 125.966 32.5398C125.981 32.5322 125.993 32.521 126.003 32.5072C126.013 32.4934 126.019 32.4774 126.022 32.4605C126.025 32.4435 126.024 32.4261 126.019 32.4096L120.583 11.0039C120.576 10.98 120.563 10.959 120.544 10.944C120.525 10.9291 120.502 10.9211 120.479 10.9212H116.684C116.661 10.9211 116.638 10.9291 116.62 10.944C116.601 10.959 116.587 10.98 116.581 11.0039L111.125 32.4096C111.122 32.4263 111.121 32.4439 111.125 32.4608C111.128 32.4777 111.135 32.4936 111.145 32.5072C111.155 32.5209 111.168 32.5319 111.182 32.5396C111.197 32.5472 111.213 32.5512 111.229 32.5513H113.87C113.893 32.5503 113.915 32.5413 113.933 32.5257C113.951 32.5101 113.964 32.4887 113.97 32.4647L115.556 26.2442C115.562 26.2206 115.575 26.1997 115.593 26.1847C115.611 26.1698 115.633 26.1616 115.656 26.1615H121.492C121.515 26.1622 121.537 26.1706 121.555 26.1855C121.573 26.2003 121.586 26.2209 121.592 26.2442L123.172 32.4607C123.176 32.4872 123.189 32.5109 123.209 32.5276C123.229 32.5442 123.254 32.5527 123.279 32.5513ZM116.348 23.13L118.471 14.7953C118.478 14.7726 118.492 14.7528 118.51 14.7388C118.528 14.7248 118.55 14.7173 118.572 14.7173C118.595 14.7173 118.617 14.7248 118.635 14.7388C118.653 14.7528 118.667 14.7726 118.674 14.7953L120.797 23.13C120.802 23.1465 120.803 23.1639 120.8 23.1809C120.797 23.1978 120.79 23.2138 120.781 23.2276C120.771 23.2414 120.758 23.2526 120.744 23.2602C120.729 23.2679 120.713 23.2718 120.697 23.2717H116.451C116.435 23.2716 116.419 23.2676 116.405 23.26C116.39 23.2523 116.377 23.2413 116.367 23.2276C116.357 23.214 116.35 23.1981 116.347 23.1812C116.344 23.1642 116.344 23.1467 116.348 23.13Z" fill="#F7F7F7"/>
<path d="M168.294 32.5514H170.931C170.947 32.5513 170.963 32.5473 170.978 32.5396C170.992 32.532 171.005 32.5209 171.015 32.5073C171.025 32.4936 171.032 32.4777 171.035 32.4608C171.039 32.4439 171.038 32.4264 171.034 32.4096L165.579 11.0039C165.573 10.9797 165.56 10.9583 165.541 10.9432C165.522 10.9282 165.499 10.9205 165.475 10.9213H161.696C161.672 10.9212 161.649 10.9292 161.631 10.9441C161.612 10.959 161.598 10.98 161.592 11.0039L156.14 32.4096C156.137 32.4261 156.136 32.4433 156.139 32.4599C156.142 32.4765 156.149 32.4922 156.159 32.5058C156.168 32.5194 156.181 32.5305 156.195 32.5384C156.209 32.5463 156.224 32.5507 156.24 32.5514H158.881C158.904 32.551 158.927 32.5423 158.945 32.5266C158.963 32.5109 158.976 32.4891 158.981 32.4647L160.568 26.2442C160.574 26.2203 160.588 26.1993 160.606 26.1844C160.625 26.1694 160.648 26.1614 160.671 26.1615H166.504C166.527 26.1616 166.549 26.1698 166.567 26.1848C166.585 26.1997 166.598 26.2206 166.604 26.2442L168.19 32.4647C168.196 32.4894 168.209 32.5113 168.228 32.527C168.247 32.5426 168.27 32.5512 168.294 32.5514ZM161.363 23.13L163.486 14.7953C163.493 14.7726 163.506 14.7529 163.525 14.7389C163.543 14.7249 163.565 14.7174 163.587 14.7174C163.61 14.7174 163.632 14.7249 163.65 14.7389C163.668 14.7529 163.682 14.7726 163.689 14.7953L165.812 23.13C165.816 23.1468 165.816 23.1643 165.813 23.1812C165.81 23.1981 165.803 23.214 165.793 23.2277C165.783 23.2413 165.77 23.2524 165.755 23.26C165.741 23.2676 165.725 23.2717 165.708 23.2718H161.463C161.446 23.2719 161.43 23.2679 161.416 23.2603C161.401 23.2526 161.389 23.2414 161.379 23.2277C161.369 23.2139 161.363 23.1979 161.36 23.1809C161.357 23.164 161.358 23.1465 161.363 23.13Z" fill="#F7F7F7"/>
<path d="M75.6309 29.3977V22.7756C75.6303 22.761 75.6327 22.7464 75.6377 22.7328C75.6427 22.7192 75.6503 22.7068 75.66 22.6964C75.6698 22.6861 75.6814 22.678 75.6942 22.6727C75.707 22.6673 75.7207 22.6648 75.7344 22.6654H83.4569C83.4847 22.6644 83.5111 22.6519 83.5304 22.6306C83.5497 22.6093 83.5605 22.5808 83.5605 22.5512V19.8858C83.5605 19.8562 83.5497 19.8278 83.5304 19.8065C83.5111 19.7852 83.4847 19.7727 83.4569 19.7717H75.7344C75.707 19.7717 75.6806 19.7601 75.6612 19.7394C75.6418 19.7187 75.6309 19.6907 75.6309 19.6614V13.996C75.6304 13.9812 75.6327 13.9665 75.6377 13.9526C75.6426 13.9388 75.6502 13.9262 75.6599 13.9155C75.6695 13.9049 75.6811 13.8964 75.6939 13.8906C75.7067 13.8848 75.7205 13.8818 75.7344 13.8819H84.5221C84.5499 13.8819 84.5767 13.8704 84.5967 13.8498C84.6167 13.8293 84.6284 13.8012 84.6294 13.7716V11.1023C84.6284 11.0727 84.6167 11.0447 84.5967 11.0241C84.5767 11.0035 84.5499 10.992 84.5221 10.9921H72.6166C72.5891 10.9921 72.5628 11.0037 72.5433 11.0243C72.5239 11.045 72.513 11.0731 72.513 11.1023V32.4371C72.5125 32.4519 72.5148 32.4667 72.5198 32.4805C72.5248 32.4944 72.5323 32.507 72.542 32.5176C72.5517 32.5283 72.5632 32.5368 72.5761 32.5425C72.5889 32.5483 72.6026 32.5513 72.6166 32.5513H84.8994C84.9278 32.5513 84.9551 32.5393 84.9752 32.5179C84.9953 32.4964 85.0066 32.4674 85.0066 32.4371V29.6221C85.0066 29.5919 84.9953 29.5628 84.9752 29.5414C84.9551 29.52 84.9278 29.508 84.8994 29.508H75.7344C75.7207 29.5085 75.707 29.506 75.6942 29.5007C75.6814 29.4954 75.6698 29.4873 75.66 29.4769C75.6503 29.4666 75.6427 29.4542 75.6377 29.4406C75.6327 29.4269 75.6303 29.4124 75.6309 29.3977Z" fill="#F7F7F7"/>
<path d="M214.496 32.3584L204.458 21.315C204.448 21.3047 204.44 21.2925 204.435 21.279C204.43 21.2654 204.427 21.2509 204.427 21.2362C204.427 21.2216 204.43 21.2071 204.435 21.1935C204.44 21.18 204.448 21.1678 204.458 21.1575L213.486 11.2007C213.501 11.1853 213.511 11.1655 213.515 11.1439C213.519 11.1223 213.517 11.0999 213.509 11.0796C213.501 11.0592 213.488 11.0419 213.471 11.0298C213.453 11.0177 213.433 11.0114 213.412 11.0117H209.717C209.703 11.0117 209.688 11.0149 209.675 11.021C209.662 11.0271 209.65 11.036 209.64 11.0472L201.976 19.5158C201.962 19.5323 201.942 19.5437 201.922 19.5486C201.901 19.5534 201.879 19.5515 201.859 19.543C201.839 19.5346 201.822 19.5199 201.81 19.501C201.798 19.4821 201.791 19.4598 201.791 19.437V11.1023C201.791 11.0731 201.781 11.045 201.761 11.0243C201.742 11.0037 201.715 10.9921 201.688 10.9921H198.781C198.753 10.992 198.726 11.0035 198.706 11.0241C198.686 11.0447 198.675 11.0727 198.674 11.1023V32.4371C198.674 32.4674 198.685 32.4964 198.705 32.5179C198.725 32.5393 198.752 32.5513 198.781 32.5513H201.688C201.702 32.5513 201.716 32.5483 201.728 32.5425C201.741 32.5368 201.753 32.5283 201.762 32.5176C201.772 32.507 201.78 32.4944 201.785 32.4805C201.79 32.4667 201.792 32.4519 201.791 32.4371V23.0473C201.792 23.0253 201.799 23.004 201.811 22.9859C201.822 22.9678 201.839 22.9538 201.858 22.9455C201.877 22.9371 201.898 22.9349 201.919 22.939C201.939 22.9431 201.958 22.9533 201.973 22.9685L210.653 32.5159C210.672 32.5375 210.699 32.5503 210.727 32.5513H214.426C214.446 32.5499 214.466 32.5422 214.482 32.5294C214.498 32.5165 214.511 32.4989 214.518 32.4787C214.526 32.4584 214.528 32.4363 214.524 32.415C214.52 32.3937 214.51 32.3741 214.496 32.3584Z" fill="#F7F7F7"/>
<path d="M36.1875 1.22052L21.6594 12.8193L24.3576 5.97629L36.1875 1.22052Z" fill="#F7F7F7" stroke="#F7F7F7" stroke-width="0.712817" stroke-linecap="round" stroke-linejoin="round"/>
<path d="M1.94287 1.22052L16.9898 12.8193L14.3078 5.9317L1.94287 1.22052Z" fill="#F7F7F7" stroke="#F7F7F7" stroke-width="0.712817" stroke-linecap="round" stroke-linejoin="round"/>
<path d="M30.8082 28.2842L26.8479 34.6693L35.3221 37.1214L37.744 28.4252L30.8082 28.2842Z" fill="#F7F7F7" stroke="#F7F7F7" stroke-width="0.712817" stroke-linecap="round" stroke-linejoin="round"/>
<path d="M0.38623 28.4252L2.7966 37.1214L11.2823 34.6693L7.33136 28.2842L0.38623 28.4252Z" fill="#F7F7F7" stroke="#F7F7F7" stroke-width="0.712817" stroke-linecap="round" stroke-linejoin="round"/>
<path d="M11.0217 17.5586L8.68799 21.2682L16.9898 21.6564L16.709 12.267L11.0217 17.5586Z" fill="#F7F7F7" stroke="#F7F7F7" stroke-width="0.712817" stroke-linecap="round" stroke-linejoin="round"/>
<path d="M27.6275 17.6054L21.8515 12.267L21.6594 21.6564L29.9612 21.2726L27.6275 17.6054Z" fill="#F7F7F7" stroke="#F7F7F7" stroke-width="0.712817" stroke-linecap="round" stroke-linejoin="round"/>
<path d="M11.2822 34.9121L16.4708 32.3601L12.0013 28.8366L11.2822 34.9121Z" fill="#F7F7F7" stroke="#F7F7F7" stroke-width="0.712817" stroke-linecap="round" stroke-linejoin="round"/>
<path d="M22.1785 32.3601L26.8482 34.9121L26.2011 28.8366L22.1785 32.3601Z" fill="#F7F7F7" stroke="#F7F7F7" stroke-width="0.712817" stroke-linecap="round" stroke-linejoin="round"/>
<path d="M26.8482 34.7639L22.1785 32.1506L22.5502 35.6496L22.5095 37.1215L26.8482 34.7639Z" fill="#FEF9F9" stroke="#FEF9F9" stroke-width="0.712817" stroke-linecap="round" stroke-linejoin="round"/>
<path d="M11.2822 34.7639L16.103 37.1215L16.0729 35.6496L16.4708 32.1506L11.2822 34.7639Z" fill="#FEF9F9" stroke="#FEF9F9" stroke-width="0.712817" stroke-linecap="round" stroke-linejoin="round"/>
<path d="M15.9522 26.075L11.8013 24.7583L14.7299 23.3134L15.9522 26.075Z" fill="#233447" stroke="#233447" stroke-width="0.712817" stroke-linecap="round" stroke-linejoin="round"/>
<path d="M22.1785 26.075L23.3964 23.3134L26.3294 24.7583L22.1785 26.075Z" fill="#233447" stroke="#233447" stroke-width="0.712817" stroke-linecap="round" stroke-linejoin="round"/>
<path d="M11.5896 34.9121L12.3201 28.2842L7.65039 28.4306L11.5896 34.9121Z" fill="#F7F7F7" stroke="#F7F7F7" stroke-width="0.712817" stroke-linecap="round" stroke-linejoin="round"/>
<path d="M26.3296 28.2842L27.0578 34.9121L30.9993 28.4306L26.3296 28.2842Z" fill="#F7F7F7" stroke="#F7F7F7" stroke-width="0.712817" stroke-linecap="round" stroke-linejoin="round"/>
<path d="M29.9612 21.1042L21.6594 21.5004L22.4276 26.0751L23.6541 23.3206L26.6076 24.7618L29.9612 21.1042Z" fill="#F7F7F7" stroke="#F7F7F7" stroke-width="0.712817" stroke-linecap="round" stroke-linejoin="round"/>
<path d="M12.0561 24.7618L14.9951 23.3206L16.2216 26.0751L16.9898 21.5004L8.68799 21.1042L12.0561 24.7618Z" fill="#F7F7F7" stroke="#F7F7F7" stroke-width="0.712817" stroke-linecap="round" stroke-linejoin="round"/>
<path d="M8.68799 21.1042L12.32 28.8367L12.1972 24.987L8.68799 21.1042Z" fill="#F7F7F7" stroke="#F7F7F7" stroke-width="0.712817" stroke-linecap="round" stroke-linejoin="round"/>
<path d="M26.4675 24.987L26.3296 28.8367L29.9616 21.1042L26.4675 24.987Z" fill="#F7F7F7" stroke="#F7F7F7" stroke-width="0.712817" stroke-linecap="round" stroke-linejoin="round"/>
<path d="M16.9643 21.6566L15.9521 26.2163L17.2365 31.5984L17.5087 24.5124L16.9643 21.6566Z" fill="#F7F7F7" stroke="#F7F7F7" stroke-width="0.712817" stroke-linecap="round" stroke-linejoin="round"/>
<path d="M21.4949 21.6566L21.1404 24.4969L21.3112 31.5984L22.1781 26.2163L21.4949 21.6566Z" fill="#F7F7F7" stroke="#F7F7F7" stroke-width="0.712817" stroke-linecap="round" stroke-linejoin="round"/>
<path d="M22.1216 26.2735L21.1404 31.6319L21.8536 32.1504L26.1957 28.5688L26.329 24.9702L22.1216 26.2735Z" fill="#F7F7F7" stroke="#F7F7F7" stroke-width="0.712817" stroke-linecap="round" stroke-linejoin="round"/>
<path d="M11.8013 24.9702L11.9202 28.5688L16.2747 32.1504L16.9899 31.6319L16.0059 26.2735L11.8013 24.9702Z" fill="#F7F7F7" stroke="#F7F7F7" stroke-width="0.712817" stroke-linecap="round" stroke-linejoin="round"/>
<path d="M22.1827 37.2628L22.2264 35.7952L21.8574 35.4486H16.2729L15.9184 35.7952L15.9476 37.2628L11.2822 34.9122L12.9118 36.3316L16.2292 38.7785H21.9011L25.2185 36.3316L26.8481 34.9122L22.1827 37.2628Z" fill="#FEF9F9" stroke="#FEF9F9" stroke-width="0.712817" stroke-linecap="round" stroke-linejoin="round"/>
<path d="M21.7839 32.1722L21.0827 31.5983H17.0335L16.3323 32.1722L15.9521 36.0168L16.3021 35.6348H21.8142L22.1785 36.0168L21.7839 32.1722Z" fill="#161616" stroke="#161616" stroke-width="0.712817" stroke-linecap="round" stroke-linejoin="round"/>
<path d="M37.0211 13.745L38.2632 7.25235L36.4007 1.22052L22.1785 12.5835L27.6492 17.5635L35.38 19.9995L37.0808 17.8504L36.341 17.2782L37.5234 16.1151L36.6221 15.3517L37.8045 14.3814L37.0211 13.745Z" fill="#434343" stroke="#434343" stroke-width="0.712817" stroke-linecap="round" stroke-linejoin="round"/>
<path d="M0.38623 7.25235L1.64289 13.745L0.84492 14.3814L2.02732 15.3517L1.12596 16.1151L2.30836 17.2782L1.56863 17.8504L3.26942 19.9995L11.0001 17.5635L16.4709 12.5835L2.24865 1.22052L0.38623 7.25235Z" fill="#434343" stroke="#434343" stroke-width="0.712817" stroke-linecap="round" stroke-linejoin="round"/>
<path d="M35.1697 20.209L27.4772 17.7902L29.8013 21.5678L26.3296 28.8366L30.9185 28.7728H37.7445L35.1697 20.209Z" fill="#F7F7F7" stroke="#F7F7F7" stroke-width="0.712817" stroke-linecap="round" stroke-linejoin="round"/>
<path d="M11.1188 17.7902L3.06633 20.209L0.38623 28.7728H7.53164L12.32 28.8366L8.68589 21.5678L11.1188 17.7902Z" fill="#F7F7F7" stroke="#F7F7F7" stroke-width="0.712817" stroke-linecap="round" stroke-linejoin="round"/>
<path d="M21.5516 21.7067L22.048 12.6459L24.2536 6.19135H14.3953L16.6009 12.6459L17.0972 21.7067L17.2872 24.5636L17.3015 31.5981H21.3473L21.3617 24.5636L21.5516 21.7067Z" fill="#F7F7F7" stroke="#F7F7F7" stroke-width="0.712817" stroke-linecap="round" stroke-linejoin="round"/>
</svg>
