<svg width="199" height="42" viewBox="0 0 199 42" fill="none" xmlns="http://www.w3.org/2000/svg">
<g clip-path="url(#clip0_1_360)">
<path fill-rule="evenodd" clip-rule="evenodd" d="M38.8416 20.9995C38.8416 32.2618 30.2637 41.3928 19.6837 41.3928C9.10373 41.3928 0.525879 32.2618 0.525879 20.9995C0.525879 9.73722 9.10373 0.606201 19.6837 0.606201C30.2659 0.606201 38.8416 9.73722 38.8416 20.9995ZM9.97757 21.6848L10.0602 21.5464L15.0439 13.2473C15.1168 13.1258 15.288 13.1383 15.3431 13.2703C16.1757 15.2566 16.8941 17.7269 16.5576 19.2648C16.4139 19.8975 16.0202 20.7544 15.5773 21.5464C15.5203 21.6617 15.4573 21.7748 15.3903 21.8838C15.3589 21.9341 15.3057 21.9634 15.2486 21.9634H10.1232C9.98542 21.9634 9.90473 21.8042 9.97757 21.6848ZM32.1917 24.5405V23.2269C32.1917 23.1053 32.0815 23.0173 31.9732 23.0509L26.1451 24.8444C26.1136 24.8527 26.086 24.8716 26.0644 24.8967C25.4402 25.6307 24.9097 26.1232 24.7692 26.2537L24.7594 26.2628C24.3972 26.5897 23.9485 26.7678 23.4761 26.7678H21.3661V24.4777H23.0431C23.0864 24.4777 23.1277 24.4609 23.1592 24.4316L23.3757 24.22C23.4682 24.1299 23.5784 24.0209 23.7103 23.8805C23.7215 23.8686 23.7329 23.8565 23.7444 23.8443C23.8137 23.7708 23.8877 23.6923 23.9603 23.6061C24.0469 23.516 24.1315 23.4154 24.2102 23.3169C24.3421 23.1661 24.4681 23.0089 24.6 22.8434C24.6945 22.7345 24.7811 22.6109 24.8657 22.4872C24.9602 22.3699 25.0527 22.2379 25.1393 22.1122C25.1715 22.0618 25.2058 22.0108 25.2409 21.9587C25.2743 21.9091 25.3084 21.8584 25.342 21.8063C25.405 21.7057 25.468 21.5989 25.5211 21.4983C25.6865 21.2259 25.8262 20.9346 25.9443 20.6434C25.9985 20.5187 26.0419 20.3874 26.084 20.2597C26.0893 20.2437 26.0945 20.2277 26.0998 20.2118C26.147 20.063 26.1864 19.9227 26.2159 19.7739C26.2868 19.424 26.3025 19.0762 26.271 18.7284C26.2632 18.6194 26.2553 18.5126 26.2317 18.412V18.3953C26.2238 18.324 26.208 18.2444 26.1864 18.1711C26.1156 17.8316 26.0053 17.4922 25.8656 17.1591C25.8183 17.0354 25.7632 16.9097 25.7101 16.7945C25.5841 16.5452 25.4522 16.2958 25.3026 16.0549C25.2726 16.004 25.2395 15.9524 25.2064 15.901C25.1809 15.8613 25.1554 15.8217 25.1314 15.7825C25.0367 15.627 24.9302 15.4771 24.8268 15.3316C24.8035 15.2987 24.7803 15.266 24.7574 15.2336C24.6964 15.1483 24.6296 15.063 24.5624 14.9772C24.5256 14.9302 24.4886 14.8829 24.4523 14.8355C24.35 14.7035 24.2496 14.5778 24.1473 14.4541C23.7812 14.0141 23.3974 13.6161 23.0549 13.2766C22.9919 13.2096 22.923 13.1425 22.8521 13.0776C22.5864 12.8199 22.3443 12.5957 22.1416 12.4218C22.0807 12.3719 22.026 12.3228 21.9752 12.277C21.9406 12.2459 21.9077 12.2163 21.8758 12.1892C21.8144 12.1404 21.7611 12.0972 21.7163 12.0609C21.6879 12.0379 21.663 12.0177 21.6416 12.0006C21.6259 11.9881 21.6082 11.9797 21.5905 11.9734L21.3661 11.9064V9.92846C21.3661 9.60579 21.244 9.31666 21.0492 9.10501C20.8543 8.89341 20.5827 8.76351 20.2835 8.76351C19.6851 8.76351 19.201 9.28521 19.201 9.92846V11.261L19.0888 11.2275L18.7837 11.1353L18.5061 11.0536C18.5053 11.0536 18.5045 11.0532 18.5036 11.0528C18.5022 11.0522 18.5006 11.0515 18.4983 11.0515H18.4924L16.3863 10.4439C16.2938 10.4166 16.215 10.5235 16.2623 10.6136L16.5989 11.2757C16.618 11.3266 16.6422 11.3775 16.6671 11.4297C16.6832 11.4636 16.6995 11.498 16.715 11.5334C16.7701 11.6507 16.8252 11.7743 16.8784 11.898C16.9256 12.0069 16.9729 12.1138 17.028 12.2311C17.0511 12.2863 17.0747 12.3421 17.0987 12.3987C17.1867 12.6067 17.2792 12.8253 17.3704 13.0608C17.4492 13.2599 17.5279 13.4589 17.5968 13.6663C17.7858 14.188 17.9648 14.7454 18.1204 15.3174C18.1591 15.4454 18.19 15.5693 18.2214 15.6949C18.2346 15.7481 18.248 15.8016 18.2621 15.8559L18.2837 15.9564C18.3467 16.2225 18.4018 16.4865 18.4412 16.7526C18.4727 16.9349 18.5022 17.1088 18.5179 17.2848C18.5416 17.4838 18.5652 17.6829 18.5731 17.8819C18.5888 18.0642 18.5967 18.2549 18.5967 18.4372C18.5967 18.9023 18.5573 19.3507 18.4648 19.7739C18.459 19.7966 18.4532 19.8197 18.4474 19.8429C18.4215 19.9459 18.3946 20.0526 18.3625 20.1553C18.3334 20.2651 18.2957 20.375 18.2566 20.4891C18.2427 20.5295 18.2287 20.5704 18.2148 20.612C18.2122 20.6194 18.2096 20.6268 18.207 20.6343C18.1781 20.7173 18.1486 20.8017 18.1125 20.8844C17.9176 21.3831 17.6755 21.8796 17.4256 22.3448C17.0594 23.0341 16.6914 23.6396 16.4335 24.0293C16.4178 24.0545 16.4024 24.0785 16.3875 24.1015C16.3691 24.1303 16.3515 24.1576 16.3351 24.1844C16.2544 24.3059 16.3371 24.4777 16.4768 24.4777H19.201V26.7678H16.4453C15.7053 26.7678 15.0203 26.3215 14.6896 25.607C14.5184 25.2487 14.4515 24.8548 14.4908 24.4693C14.5007 24.3541 14.42 24.2451 14.3098 24.2451H8.74341C8.64893 24.2451 8.57218 24.3268 8.57218 24.4274V24.5489C8.57218 28.3287 11.44 31.3919 14.9789 31.3919H24.9641C26.8358 31.3919 27.8986 29.5763 28.9432 27.7918C29.2344 27.2943 29.5242 26.7993 29.8297 26.3466C30.3789 25.5337 31.6996 24.8883 32.0854 24.7123C32.1484 24.683 32.1917 24.616 32.1917 24.5405Z" fill="white"/>
</g>
<path d="M63.4496 32.7235C61.3376 32.7235 59.3962 32.2328 57.6256 31.2515C55.8762 30.2702 54.4789 28.9048 53.4336 27.1555C52.4096 25.3848 51.8976 23.4008 51.8976 21.2035C51.8976 19.0062 52.4096 17.0328 53.4336 15.2835C54.4789 13.5342 55.8762 12.1688 57.6256 11.1875C59.3962 10.2062 61.3376 9.71551 63.4496 9.71551C65.5616 9.71551 67.4922 10.2062 69.2416 11.1875C71.0122 12.1688 72.3989 13.5342 73.4016 15.2835C74.4256 17.0328 74.9376 19.0062 74.9376 21.2035C74.9376 23.4008 74.4256 25.3848 73.4016 27.1555C72.3776 28.9048 70.9909 30.2702 69.2416 31.2515C67.4922 32.2328 65.5616 32.7235 63.4496 32.7235ZM63.4496 27.7315C65.2416 27.7315 66.6709 27.1342 67.7376 25.9395C68.8256 24.7448 69.3696 23.1662 69.3696 21.2035C69.3696 19.2195 68.8256 17.6408 67.7376 16.4675C66.6709 15.2728 65.2416 14.6755 63.4496 14.6755C61.6362 14.6755 60.1856 15.2622 59.0976 16.4355C58.0309 17.6088 57.4976 19.1982 57.4976 21.2035C57.4976 23.1875 58.0309 24.7768 59.0976 25.9715C60.1856 27.1448 61.6362 27.7315 63.4496 27.7315ZM82.4938 17.1715C83.0271 16.3395 83.7631 15.6675 84.7018 15.1555C85.6405 14.6435 86.7391 14.3875 87.9978 14.3875C89.4698 14.3875 90.8031 14.7608 91.9978 15.5075C93.1925 16.2542 94.1311 17.3208 94.8138 18.7075C95.5178 20.0942 95.8698 21.7048 95.8698 23.5395C95.8698 25.3742 95.5178 26.9955 94.8138 28.4035C94.1311 29.7902 93.1925 30.8675 91.9978 31.6355C90.8031 32.3822 89.4698 32.7555 87.9978 32.7555C86.7605 32.7555 85.6618 32.4995 84.7018 31.9875C83.7631 31.4755 83.0271 30.8142 82.4938 30.0035V41.0115H77.0218V14.6435H82.4938V17.1715ZM90.3018 23.5395C90.3018 22.1742 89.9178 21.1075 89.1498 20.3395C88.4031 19.5502 87.4751 19.1555 86.3658 19.1555C85.2778 19.1555 84.3498 19.5502 83.5818 20.3395C82.8351 21.1288 82.4618 22.2062 82.4618 23.5715C82.4618 24.9368 82.8351 26.0142 83.5818 26.8035C84.3498 27.5928 85.2778 27.9875 86.3658 27.9875C87.4538 27.9875 88.3818 27.5928 89.1498 26.8035C89.9178 25.9928 90.3018 24.9048 90.3018 23.5395ZM114.613 23.2835C114.613 23.7955 114.581 24.3288 114.517 24.8835H102.133C102.218 25.9928 102.57 26.8462 103.189 27.4435C103.829 28.0195 104.607 28.3075 105.525 28.3075C106.89 28.3075 107.839 27.7315 108.373 26.5795H114.197C113.898 27.7528 113.354 28.8088 112.565 29.7475C111.797 30.6862 110.826 31.4222 109.653 31.9555C108.479 32.4888 107.167 32.7555 105.717 32.7555C103.967 32.7555 102.41 32.3822 101.045 31.6355C99.6792 30.8888 98.6126 29.8222 97.8446 28.4355C97.0766 27.0488 96.6926 25.4275 96.6926 23.5715C96.6926 21.7155 97.0659 20.0942 97.8126 18.7075C98.5806 17.3208 99.6472 16.2542 101.013 15.5075C102.378 14.7608 103.946 14.3875 105.717 14.3875C107.445 14.3875 108.981 14.7502 110.325 15.4755C111.669 16.2008 112.714 17.2355 113.461 18.5795C114.229 19.9235 114.613 21.4915 114.613 23.2835ZM109.013 21.8435C109.013 20.9048 108.693 20.1582 108.053 19.6035C107.413 19.0488 106.613 18.7715 105.653 18.7715C104.735 18.7715 103.957 19.0382 103.317 19.5715C102.698 20.1048 102.314 20.8622 102.165 21.8435H109.013ZM127.419 14.4515C129.51 14.4515 131.174 15.1342 132.411 16.4995C133.67 17.8435 134.299 19.6995 134.299 22.0675V32.4995H128.859V22.8035C128.859 21.6088 128.55 20.6808 127.931 20.0195C127.313 19.3582 126.481 19.0275 125.435 19.0275C124.39 19.0275 123.558 19.3582 122.939 20.0195C122.321 20.6808 122.011 21.6088 122.011 22.8035V32.4995H116.539V14.6435H122.011V17.0115C122.566 16.2222 123.313 15.6035 124.251 15.1555C125.19 14.6862 126.246 14.4515 127.419 14.4515ZM145.27 32.7235C143.627 32.7235 142.155 32.4568 140.854 31.9235C139.552 31.3902 138.507 30.6008 137.718 29.5555C136.95 28.5102 136.544 27.2515 136.502 25.7795H142.326C142.411 26.6115 142.699 27.2515 143.19 27.6995C143.68 28.1262 144.32 28.3395 145.11 28.3395C145.92 28.3395 146.56 28.1582 147.03 27.7955C147.499 27.4115 147.734 26.8888 147.734 26.2275C147.734 25.6728 147.542 25.2142 147.158 24.8515C146.795 24.4888 146.336 24.1902 145.782 23.9555C145.248 23.7208 144.48 23.4542 143.478 23.1555C142.027 22.7075 140.843 22.2595 139.926 21.8115C139.008 21.3635 138.219 20.7022 137.558 19.8275C136.896 18.9528 136.566 17.8115 136.566 16.4035C136.566 14.3128 137.323 12.6808 138.838 11.5075C140.352 10.3128 142.326 9.71551 144.758 9.71551C147.232 9.71551 149.227 10.3128 150.742 11.5075C152.256 12.6808 153.067 14.3235 153.174 16.4355H147.254C147.211 15.7102 146.944 15.1448 146.454 14.7395C145.963 14.3128 145.334 14.0995 144.566 14.0995C143.904 14.0995 143.371 14.2808 142.966 14.6435C142.56 14.9848 142.358 15.4862 142.358 16.1475C142.358 16.8728 142.699 17.4382 143.382 17.8435C144.064 18.2488 145.131 18.6862 146.582 19.1555C148.032 19.6462 149.206 20.1155 150.102 20.5635C151.019 21.0115 151.808 21.6622 152.47 22.5155C153.131 23.3688 153.462 24.4675 153.462 25.8115C153.462 27.0915 153.131 28.2542 152.47 29.2995C151.83 30.3448 150.891 31.1768 149.654 31.7955C148.416 32.4142 146.955 32.7235 145.27 32.7235ZM172.701 23.2835C172.701 23.7955 172.669 24.3288 172.605 24.8835H160.221C160.307 25.9928 160.659 26.8462 161.277 27.4435C161.917 28.0195 162.696 28.3075 163.613 28.3075C164.979 28.3075 165.928 27.7315 166.461 26.5795H172.285C171.987 27.7528 171.443 28.8088 170.653 29.7475C169.885 30.6862 168.915 31.4222 167.741 31.9555C166.568 32.4888 165.256 32.7555 163.805 32.7555C162.056 32.7555 160.499 32.3822 159.133 31.6355C157.768 30.8888 156.701 29.8222 155.933 28.4355C155.165 27.0488 154.781 25.4275 154.781 23.5715C154.781 21.7155 155.155 20.0942 155.901 18.7075C156.669 17.3208 157.736 16.2542 159.101 15.5075C160.467 14.7608 162.035 14.3875 163.805 14.3875C165.533 14.3875 167.069 14.7502 168.413 15.4755C169.757 16.2008 170.803 17.2355 171.549 18.5795C172.317 19.9235 172.701 21.4915 172.701 23.2835ZM167.101 21.8435C167.101 20.9048 166.781 20.1582 166.141 19.6035C165.501 19.0488 164.701 18.7715 163.741 18.7715C162.824 18.7715 162.045 19.0382 161.405 19.5715C160.787 20.1048 160.403 20.8622 160.253 21.8435H167.101ZM173.54 23.5395C173.54 21.7048 173.881 20.0942 174.564 18.7075C175.268 17.3208 176.217 16.2542 177.412 15.5075C178.607 14.7608 179.94 14.3875 181.412 14.3875C182.671 14.3875 183.769 14.6435 184.708 15.1555C185.668 15.6675 186.404 16.3395 186.916 17.1715V14.6435H192.388V32.4995H186.916V29.9715C186.383 30.8035 185.636 31.4755 184.676 31.9875C183.737 32.4995 182.639 32.7555 181.38 32.7555C179.929 32.7555 178.607 32.3822 177.412 31.6355C176.217 30.8675 175.268 29.7902 174.564 28.4035C173.881 26.9955 173.54 25.3742 173.54 23.5395ZM186.916 23.5715C186.916 22.2062 186.532 21.1288 185.764 20.3395C185.017 19.5502 184.1 19.1555 183.012 19.1555C181.924 19.1555 180.996 19.5502 180.228 20.3395C179.481 21.1075 179.108 22.1742 179.108 23.5395C179.108 24.9048 179.481 25.9928 180.228 26.8035C180.996 27.5928 181.924 27.9875 183.012 27.9875C184.1 27.9875 185.017 27.5928 185.764 26.8035C186.532 26.0142 186.916 24.9368 186.916 23.5715Z" fill="white"/>
<defs>
<clipPath id="clip0_1_360">
<rect width="38.3157" height="40.7866" fill="white" transform="translate(0.525879 0.606201)"/>
</clipPath>
</defs>
</svg>
